<svg width="1726" height="1726" viewBox="0 0 1726 1726" fill="none" xmlns="http://www.w3.org/2000/svg">
<path d="M856.758 194.086C914.644 187.641 918.506 253.599 928.519 293.669L995.191 557.635C1010.66 617.755 1036.76 664.055 1107.11 671.28C1125.83 673.205 1144.9 670.424 1163.54 668.567L1388.68 644.319C1433.6 638.987 1478.72 632.773 1523.81 629.069C1579.86 624.465 1610.69 687.137 1567.32 725.678C1555.49 736.2 1538.3 743.483 1524.46 751.187L1460.7 787.454C1380.53 833.891 1293.28 894.794 1220.52 951.419C1129.32 1022.39 1141.56 1046.43 1183.85 1154.31C1214.73 1233.08 1248.17 1310.97 1282.13 1388.48C1297.93 1424.55 1332.1 1476.68 1299.83 1513.33C1256 1563.11 1204.32 1497.95 1173.88 1469.63C1113.97 1413.88 939.499 1234.22 866.868 1237.89C821.236 1219.17 743.244 1298.6 713.485 1324.29C649.644 1379.41 586.929 1435.7 525.74 1493.73C515.612 1503.34 505.273 1514.47 493.299 1521.73C457.005 1543.74 406.837 1516.61 412.323 1472.69C413.793 1460.9 420.739 1449.17 425.309 1438.33L482.244 1304.05C500.41 1260.99 518.656 1218.06 535.914 1174.61L558.828 1115.6C577.59 1066.04 584.445 1028.05 545.324 981.757C496.81 924.35 260.476 783.403 194.362 746.027C169.458 731.947 141.523 721.385 137.041 689.22C133.027 660.405 154.841 632.129 183.715 628.425C201.545 626.14 249.21 634.171 269.677 636.581L535.742 666.717C610.001 674.998 671.604 678.58 716.798 602.755C729.008 582.268 732.533 560.419 737.619 537.579L795.313 290.051C804.692 249.709 806.006 200.198 856.758 194.086Z" fill="black"/>
<path d="M433.67 1479.01C437.593 1465.08 444.95 1451.58 450.558 1438.2L510.392 1298.36C536.703 1235.75 567.102 1165.9 588.944 1101.72C603.796 1058.08 595.836 1011.99 569.41 974.599C528.877 917.242 301.749 781.071 240.074 745.812C224.702 737.023 169.524 708.076 163.503 694.899C156.039 678.564 163.854 654.561 183.091 651.218C196.513 648.886 253.481 658.235 270.42 660.361L537.239 690.912C618.831 699.492 691.984 696.048 738.323 612.323C751.622 588.297 756.411 561.069 762.545 534.61L778.371 465.188C791.474 407.218 804.328 349.065 818.675 291.398C825.773 262.887 827.926 199.735 876.868 220.17C898.979 234.281 899.394 272.886 905.814 297.914L968.236 546.035C974.801 572.235 979.867 598.879 993.459 622.595C1032.34 690.46 1094.84 698.461 1163.67 691.188L1466.81 659.492C1483.88 657.766 1528.9 650.13 1542.61 653.533C1562.02 658.356 1569.19 684.135 1559.04 700.069C1551.1 712.542 1498.64 738.239 1483.9 746.793C1422.83 782.237 1191.91 924.916 1152.16 981.417C1107.18 1045.36 1139.48 1104.54 1164.34 1167.2C1193.55 1240.79 1224.12 1313.83 1255.8 1386.38L1279.64 1440.76C1289.76 1463.95 1305.17 1500.73 1263.64 1507.9C1245.39 1511.06 1222.01 1482.64 1210.26 1471.77L1104.79 1373.89C1052.81 1325.51 999.346 1276.11 939.273 1237.89C886.742 1210.83 838.047 1199.14 787.39 1234.26C751.174 1259.37 711.055 1296.88 677.364 1326.51C630.481 1367.75 583.296 1408.27 537.727 1450.98C513.223 1473.94 456.328 1546.58 433.67 1479.01Z" fill="#FD8D31"/>
<path d="M433.67 1479.01C437.593 1465.08 444.95 1451.58 450.558 1438.2L510.392 1298.36C536.703 1235.75 567.102 1165.9 588.944 1101.72C603.796 1058.08 595.836 1011.99 569.41 974.599C528.877 917.242 301.749 781.071 240.074 745.812C224.702 737.023 169.524 708.076 163.503 694.899C156.039 678.564 163.854 654.561 183.091 651.218C196.513 648.886 253.481 658.235 270.42 660.361L537.239 690.912C618.831 699.492 691.984 696.048 738.323 612.323C751.622 588.297 756.411 561.069 762.545 534.61L778.371 465.188C791.474 407.218 804.328 349.065 818.675 291.398C825.772 262.887 827.926 199.735 876.868 220.17C871.843 244.851 860.832 293.381 859.262 317.307C827.798 327.652 825.065 360.268 848.545 379.542C844.844 387.738 833.645 427.415 836.719 434.54C818.476 449.224 815.025 465.323 822.112 486.875C818.038 494.185 801.126 580.333 798.164 593.993C785.61 651.879 775.709 703.375 713.145 725.443C658.602 744.683 558.767 722.969 501.545 713.034C491.088 711.217 411.845 694.006 406.928 703.698C427.681 716.222 432.73 741.68 417.261 760.991C420.594 765.339 447.703 778.263 453.635 777.289L454.424 776.157C461.777 814.81 498.044 826.78 528.16 800.227C532.871 805.363 577.165 829.362 582.898 827.279C594.761 848.269 601.1 845.336 618.248 852.441C621.021 862.528 636.982 871.711 644.117 879.355C684.431 922.534 699.32 981.326 676.72 1036.81C659.205 1079.81 626.585 1116.83 606.327 1159.13C601.457 1169.3 561.285 1261.12 565.541 1268.9C556.85 1280.65 553.004 1291.01 555.778 1305.43C549.176 1311.56 544.242 1335.48 536.052 1345.79L536.09 1346.86L540.528 1347.74C555.134 1350.54 563.796 1355.38 570.108 1368.74C582.049 1359.53 598.101 1340.23 610.476 1329C620.809 1319.63 632.716 1311.98 643.372 1302.91C711.372 1245.1 785.758 1160.82 883.905 1201.04C898.892 1207.17 932.988 1222.89 939.273 1237.89C886.742 1210.83 838.047 1199.14 787.39 1234.26C751.174 1259.37 711.055 1296.88 677.364 1326.51C630.481 1367.75 583.295 1408.27 537.727 1450.98C513.223 1473.94 456.328 1546.58 433.67 1479.01Z" fill="#F55E24"/>
<path d="M417.261 760.991C405.067 771.449 388.48 777.357 372.818 770.889C328.161 752.444 357.369 678.348 406.928 703.698C427.681 716.222 432.73 741.68 417.261 760.991Z" fill="black"/>
<path d="M382.791 713.778C414.12 711.241 420.388 746.115 393.151 757.213C361.906 759.943 356.382 725.129 382.791 713.778Z" fill="#7BBCDE"/>
<path d="M540.528 1347.74C555.134 1350.54 563.796 1355.38 570.108 1368.74C574.092 1400.08 547.619 1430.3 520.169 1409.4C496.187 1391.14 508.495 1349.89 540.528 1347.74Z" fill="black"/>
<path d="M540.528 1363.26C564.274 1364.05 559.212 1392.9 542.058 1400.16C518.389 1404.15 519.363 1370.16 540.528 1363.26Z" fill="#7BBCDE"/>
<path d="M273.765 674.142C318.422 672.393 328.258 727.317 286.056 739.493C241.443 749.024 232.014 684.795 273.765 674.142Z" fill="black"/>
<path d="M276.581 689.267C301.944 688.482 304.472 717.213 283.099 725.655C257.554 727.354 255.195 697.359 276.581 689.267Z" fill="#7BBCDE"/>
<path d="M582.898 827.279C568.106 781.832 607.268 748.286 645.745 768.783C689.594 792.142 667.105 855.642 618.248 852.441C601.1 845.336 594.761 848.268 582.898 827.279Z" fill="black"/>
<path d="M618.248 779.281C657.291 772.153 665.258 828.206 628.891 837.437C589.665 839.698 580.343 788.401 618.248 779.281Z" fill="#7BBCDE"/>
<path d="M454.424 776.157C453.072 699.384 576.218 730.976 528.16 800.227C498.044 826.78 461.777 814.809 454.424 776.157Z" fill="black"/>
<path d="M494.542 745.782C531.432 745.748 532.642 790.251 498.994 800.227C464.005 798.99 459.567 754.254 494.542 745.782Z" fill="#7BBCDE"/>
<path d="M836.719 434.54C875.786 414.366 915.49 445.941 900.998 483.609C887.322 519.154 840.355 515.693 822.113 486.875C815.025 465.323 818.476 449.223 836.719 434.54Z" fill="black"/>
<path d="M854.682 443.356C890.702 439.672 901.83 482.288 866.868 494.124C833.055 498.108 821.108 454.879 854.682 443.356Z" fill="#7BBCDE"/>
<path d="M565.541 1268.9C628.419 1219.76 647.966 1342.46 581.027 1328.41C568.521 1325.78 560.918 1316.37 555.778 1305.43C553.004 1291.01 556.85 1280.65 565.541 1268.9Z" fill="black"/>
<path d="M591.323 1274.9C613.974 1275.16 618.558 1306.58 591.323 1315.49C563.914 1315.1 561.231 1282.31 591.323 1274.9Z" fill="#7BBCDE"/>
<path d="M859.262 317.307C925.044 304.568 911.247 411.676 848.545 379.542C825.065 360.268 827.798 327.652 859.262 317.307Z" fill="black"/>
<path d="M866.868 332.246C880.7 333.063 884.191 338.881 887.632 351.95C884.481 362.145 880.935 367.379 869.75 369.819C843.466 370.324 841.464 336.352 866.868 332.246Z" fill="#7BBCDE"/>
<path d="M742.573 815.874C790.544 797.702 829.254 890.861 756.654 910.832C684.06 913.511 683.821 820.326 742.573 815.874Z" fill="black"/>
<path d="M742.573 831.701C782.516 819.305 798.919 880.271 756.654 894.844C710.078 902.882 699.037 839.044 742.573 831.701Z" fill="#7BBCDE"/>
<path d="M856.758 701.073C864.125 695.981 877.565 700.278 884.69 703.995C925.459 725.267 915.628 781.532 869.75 794.791C803.55 804.982 791.528 700.958 856.758 701.073Z" fill="black"/>
<path d="M856.758 713.778C900.752 711.969 908.874 767.883 866.868 779.281C822.291 784.559 814.459 724.307 856.758 713.778Z" fill="#7BBCDE"/>
<path d="M966.282 815.874C1026.21 809.309 1040.81 897.5 978.327 910.832C909.417 913.495 902.515 825.176 966.282 815.874Z" fill="black"/>
<path d="M966.282 831.701C1007.01 827.343 1017.96 881.549 978.327 894.844C934.245 901.51 921.378 843.267 966.282 831.701Z" fill="#7BBCDE"/>
<path d="M773.37 961.577C846.186 968.772 836.513 1045.51 785.27 1055.53C725.921 1059.63 706.826 983.948 773.37 961.577Z" fill="black"/>
<path d="M773.37 979.206C815.028 976.507 822.979 1026.45 785.27 1039.82C742.846 1045.67 731.411 989.438 773.37 979.206Z" fill="#7BBCDE"/>
<path d="M937.639 961.577C995.794 957.448 1010.56 1037.33 950.988 1052.12C887.42 1060.89 873.663 970.919 937.639 961.577Z" fill="black"/>
<path d="M937.639 976.652C977.228 974.023 987.295 1021.42 950.988 1036.68C906.363 1041.13 896.384 989.041 937.639 976.652Z" fill="#7BBCDE"/>
<path d="M1097.18 776.157C1104.77 772.706 1118.27 780.11 1124.05 784.724C1157.72 811.564 1136.7 860.546 1097.18 863.909C1034.36 863.279 1034.49 776.983 1097.18 776.157Z" fill="black"/>
<path d="M1091.42 791.276C1130.56 787.373 1135.39 837.582 1101.43 848.231C1062.6 854.891 1051.46 802.34 1091.42 791.276Z" fill="#7BBCDE"/>
<path d="M856.758 552.051C917.323 547.589 928.054 623 872.682 637.97C814.435 646.436 798.255 567.833 856.758 552.051Z" fill="black"/>
<path d="M859.262 567.156C896.967 565.171 905.261 613.084 869.75 622.831C830.447 626.026 821.509 577.724 859.262 567.156Z" fill="#7BBCDE"/>
<path d="M702.006 1076.25C755.986 1079.46 756.01 1155.12 702.006 1158.76C647.137 1158.52 639.85 1081.27 702.006 1076.25Z" fill="black"/>
<path d="M694.498 1090.47C729.605 1087.64 741.481 1130.75 705.441 1143.73C668.689 1147.4 661.079 1103.12 694.498 1090.47Z" fill="#7BBCDE"/>
<path d="M1019.79 1076.25C1072.86 1072.31 1084.49 1146.1 1028.56 1158.76C972.382 1158.89 964.007 1084.54 1019.79 1076.25Z" fill="black"/>
<path d="M1022.45 1090.47C1056.89 1092.04 1060.8 1133.44 1028.56 1143.73C990.577 1142.62 987.207 1097.22 1022.45 1090.47Z" fill="#7BBCDE"/>
<path d="M856.758 879.048C909.643 875.607 920.933 946.836 866.868 961.577C810.971 965.237 800.574 886.473 856.758 879.048Z" fill="black"/>
<path d="M859.262 894.844C889.89 890.473 897.463 936.769 864.947 946.196C828.93 946.701 822.406 901.116 859.262 894.844Z" fill="#7BBCDE"/>
<path d="M1192 745.781C1237.63 737.437 1260.48 809.508 1200.12 827.279C1140.74 822.827 1141.34 750.449 1192 745.781Z" fill="black"/>
<path d="M1192 760.991C1225.83 758.069 1232.34 803.128 1200.12 810.304C1166.56 813.04 1158.7 772.595 1192 760.991Z" fill="#7BBCDE"/>
<path d="M1078.48 1168.76C1131.69 1164.86 1140.01 1233.59 1091.42 1245.16C1042.08 1253.19 1027.67 1180.75 1078.48 1168.76Z" fill="black"/>
<path d="M1081.49 1184.79C1114.67 1183.95 1117.11 1221.81 1088.21 1230.52C1057 1232.21 1052.12 1192.03 1081.49 1184.79Z" fill="#7BBCDE"/>
<path d="M638.398 1165.44C681.094 1160.23 698.926 1225.46 647.841 1240.51C598.731 1248.01 582.531 1174.46 638.398 1165.44Z" fill="black"/>
<path d="M638.398 1180.6C666.643 1180.85 673.876 1214.04 647.841 1225.79C614.362 1231.21 607.81 1187.78 638.398 1180.6Z" fill="#7BBCDE"/>
<path d="M1287.21 720.515C1339.14 717.516 1348.96 776.609 1302.26 794.791C1251.45 798.309 1239.87 735.051 1287.21 720.515Z" fill="black"/>
<path d="M1292.08 734.896C1322.75 737.292 1324.18 771.284 1296.85 779.281C1267.62 780.083 1264.66 741.218 1292.08 734.896Z" fill="#7BBCDE"/>
<path d="M1132.33 1264.86C1177.48 1260.84 1183.18 1319.62 1140.78 1329.55C1095.31 1333.06 1087.43 1273.71 1132.33 1264.86Z" fill="black"/>
<path d="M1132.33 1279.91C1156.36 1276.45 1159.45 1305.57 1140.78 1315.49C1116.66 1317.39 1108.73 1289.45 1132.33 1279.91Z" fill="#7BBCDE"/>
<path d="M1380.09 703.698C1420.86 700.84 1430.15 753.192 1391.14 765.062C1348.78 770.967 1338.48 713.62 1380.09 703.698Z" fill="black"/>
<path d="M1383.01 720.515C1404.03 718.83 1407.05 743.365 1387.44 750.51C1366.23 751.096 1361.43 724.489 1383.01 720.515Z" fill="#7BBCDE"/>
<path d="M1184.65 1350.7C1225.43 1348.06 1235.32 1401.4 1195.82 1411.92C1151.4 1415.1 1145.51 1360.72 1184.65 1350.7Z" fill="black"/>
<path d="M1187.28 1365.79C1208.62 1365.03 1210.29 1390.44 1192 1397.03C1169.87 1397.95 1169.09 1373.9 1187.28 1365.79Z" fill="#7BBCDE"/>
<path d="M1458.43 686.136C1493.01 679.878 1506.81 727.02 1468.94 739.493C1433.15 740.059 1419.56 693.257 1458.43 686.136Z" fill="black"/>
<path d="M1458.43 701.073C1474.92 699.657 1482.5 713.974 1468.94 725.655C1453.73 724.287 1442.5 710.233 1458.43 701.073Z" fill="#7BBCDE"/>
</svg>
